M48
INCH
T1C0.0157
T2C0.0394
T3C0.0630
%
G90
G05
T1
X5.5058Y-3.0042
X5.5218Y-2.5281
X5.5789Y-2.6013
X5.5927Y-2.9991
X5.6551Y-2.866
X5.6554Y-2.803
X5.6664Y-2.7082
X5.7196Y-3.0386
X5.8943Y-2.6272
X5.9891Y-2.74
X6.1045Y-2.8052
T2
X5.268Y-2.6098
X5.268Y-2.7098
X5.268Y-2.8098
X5.368Y-2.6098
X5.368Y-2.7098
X5.368Y-2.8098
T3
X6.0139Y-2.4716
X5.7188Y-2.4501
X5.7069Y-2.6538
X5.9588Y-2.5384
X5.8486Y-2.4501
X5.6419Y-2.5858
T0
M30
