G04 #@! TF.GenerationSoftware,KiCad,Pcbnew,(5.1.5)-3*
G04 #@! TF.CreationDate,2020-06-28T02:30:20+02:00*
G04 #@! TF.ProjectId,XenoGCFlex,58656e6f-4743-4466-9c65-782e6b696361,rev?*
G04 #@! TF.SameCoordinates,Original*
G04 #@! TF.FileFunction,Copper,L2,Bot*
G04 #@! TF.FilePolarity,Positive*
%FSLAX46Y46*%
G04 Gerber Fmt 4.6, Leading zero omitted, Abs format (unit mm)*
G04 Created by KiCad (PCBNEW (5.1.5)-3) date 2020-06-28 02:30:20*
%MOMM*%
%LPD*%
G04 APERTURE LIST*
%ADD10C,2.000000*%
%ADD11R,1.000000X1.500000*%
%ADD12O,1.700000X1.700000*%
%ADD13R,1.700000X1.700000*%
%ADD14C,0.800000*%
%ADD15C,0.200000*%
G04 APERTURE END LIST*
D10*
X144954000Y-67406000D03*
X143304000Y-65680000D03*
X145258000Y-62233300D03*
X148555000Y-62233300D03*
X151353000Y-64476200D03*
X152754000Y-62779900D03*
D11*
X138207000Y-66290000D03*
X139507000Y-66290000D03*
X138207000Y-68830000D03*
X139507000Y-68830000D03*
X139507000Y-71370000D03*
X138207000Y-71370000D03*
D12*
X136348000Y-66290000D03*
X133808000Y-66290000D03*
X136348000Y-68830000D03*
X133808000Y-68830000D03*
X136348000Y-71370000D03*
D13*
X133808000Y-71370000D03*
D14*
X140253720Y-64213740D03*
X145279100Y-77180200D03*
X142055100Y-76175900D03*
X139846700Y-76306500D03*
X155054300Y-71252080D03*
X143925300Y-68788500D03*
X149715900Y-66730200D03*
X143647800Y-71195000D03*
X152123800Y-69597000D03*
X143638400Y-72797000D03*
X141703700Y-66072700D03*
D15*
X139507000Y-66290000D02*
X139507000Y-64610700D01*
X139507000Y-64610700D02*
X139856760Y-64610700D01*
X139856760Y-64610700D02*
X140253720Y-64213740D01*
X140253720Y-64213740D02*
X140253720Y-64213740D01*
X140747900Y-70319700D02*
X142321100Y-71892900D01*
X142321100Y-71892900D02*
X142321100Y-74222200D01*
X142321100Y-74222200D02*
X145279100Y-77180200D01*
X140747900Y-70319700D02*
X140747900Y-66017800D01*
X140747900Y-66017800D02*
X144532400Y-62233300D01*
X144532400Y-62233300D02*
X145258000Y-62233300D01*
X138207000Y-70319700D02*
X140747900Y-70319700D01*
X138207000Y-71370000D02*
X138207000Y-70319700D01*
X142055100Y-76175900D02*
X139977300Y-76175900D01*
X139977300Y-76175900D02*
X139846700Y-76306500D01*
X148555000Y-62233300D02*
X148555000Y-63647513D01*
X148555000Y-64533298D02*
X154861260Y-70839558D01*
X148555000Y-63647513D02*
X148555000Y-64533298D01*
X154861260Y-70839558D02*
X154861260Y-71059040D01*
X154861260Y-71059040D02*
X155054300Y-71252080D01*
X155054300Y-71252080D02*
X155054300Y-71252080D01*
X143925300Y-68788500D02*
X147657600Y-68788500D01*
X147657600Y-68788500D02*
X149715900Y-66730200D01*
X140307300Y-65309800D02*
X144719700Y-60897400D01*
X151134761Y-60897400D02*
X152336898Y-62099537D01*
X139507000Y-68830000D02*
X140307300Y-68830000D01*
X144719700Y-60897400D02*
X151134761Y-60897400D01*
X140307300Y-68830000D02*
X140307300Y-65309800D01*
X143647800Y-71195000D02*
X150525800Y-71195000D01*
X150525800Y-71195000D02*
X152123800Y-69597000D01*
X143638400Y-72797000D02*
X143638400Y-72230900D01*
X143638400Y-72230900D02*
X141703700Y-70296200D01*
X141703700Y-70296200D02*
X141703700Y-66072700D01*
X136348000Y-66290000D02*
X138207000Y-66290000D01*
X136348000Y-68830000D02*
X138207000Y-68830000D01*
X136348000Y-71370000D02*
X137398400Y-72420400D01*
X137398400Y-72420400D02*
X138837400Y-72420400D01*
X138837400Y-72420400D02*
X139507000Y-71750800D01*
X139507000Y-71750800D02*
X139507000Y-71370000D01*
M02*
