G04 #@! TF.GenerationSoftware,KiCad,Pcbnew,(5.1.5)-3*
G04 #@! TF.CreationDate,2020-06-28T02:30:20+02:00*
G04 #@! TF.ProjectId,XenoGCFlex,58656e6f-4743-4466-9c65-782e6b696361,rev?*
G04 #@! TF.SameCoordinates,Original*
G04 #@! TF.FileFunction,Legend,Top*
G04 #@! TF.FilePolarity,Positive*
%FSLAX46Y46*%
G04 Gerber Fmt 4.6, Leading zero omitted, Abs format (unit mm)*
G04 Created by KiCad (PCBNEW (5.1.5)-3) date 2020-06-28 02:30:20*
%MOMM*%
%LPD*%
G04 APERTURE LIST*
%ADD10C,0.120000*%
%ADD11C,0.150000*%
G04 APERTURE END LIST*
D10*
X137457000Y-65290000D02*
X140257000Y-65290000D01*
X140257000Y-65290000D02*
X140257000Y-67290000D01*
X140257000Y-67290000D02*
X137457000Y-67290000D01*
X137457000Y-67290000D02*
X137457000Y-65290000D01*
X137457000Y-67830000D02*
X140257000Y-67830000D01*
X140257000Y-67830000D02*
X140257000Y-69830000D01*
X140257000Y-69830000D02*
X137457000Y-69830000D01*
X137457000Y-69830000D02*
X137457000Y-67830000D01*
X137457000Y-70370000D02*
X140257000Y-70370000D01*
X140257000Y-70370000D02*
X140257000Y-72370000D01*
X140257000Y-72370000D02*
X137457000Y-72370000D01*
X137457000Y-72370000D02*
X137457000Y-70370000D01*
X133808000Y-72700000D02*
X132478000Y-72700000D01*
X132478000Y-72700000D02*
X132478000Y-71370000D01*
X135078000Y-72700000D02*
X135078000Y-70100000D01*
X135078000Y-70100000D02*
X132478000Y-70100000D01*
X132478000Y-70100000D02*
X132478000Y-64960000D01*
X137678000Y-64960000D02*
X132478000Y-64960000D01*
X137678000Y-72700000D02*
X137678000Y-64960000D01*
X137678000Y-72700000D02*
X135078000Y-72700000D01*
D11*
X145901000Y-76022000D02*
X145901000Y-77447000D01*
X145676000Y-68772000D02*
X145676000Y-69097000D01*
X152926000Y-68772000D02*
X152926000Y-69097000D01*
X152926000Y-76022000D02*
X152926000Y-75697000D01*
X145676000Y-76022000D02*
X145676000Y-75697000D01*
X152926000Y-76022000D02*
X152601000Y-76022000D01*
X152926000Y-68772000D02*
X152601000Y-68772000D01*
X145676000Y-68772000D02*
X146001000Y-68772000D01*
X145676000Y-76022000D02*
X145901000Y-76022000D01*
D10*
X141999000Y-61663321D02*
X141999000Y-61988879D01*
X143019000Y-61663321D02*
X143019000Y-61988879D01*
X142192000Y-78008221D02*
X142192000Y-78333779D01*
X143212000Y-78008221D02*
X143212000Y-78333779D01*
X143676000Y-78008221D02*
X143676000Y-78333779D01*
X144696000Y-78008221D02*
X144696000Y-78333779D01*
X138888000Y-78118500D02*
X141173000Y-78118500D01*
X138888000Y-76648500D02*
X138888000Y-78118500D01*
X141173000Y-76648500D02*
X138888000Y-76648500D01*
X138888000Y-79693500D02*
X141173000Y-79693500D01*
X138888000Y-78223500D02*
X138888000Y-79693500D01*
X141173000Y-78223500D02*
X138888000Y-78223500D01*
X148358779Y-64097400D02*
X148033221Y-64097400D01*
X148358779Y-65117400D02*
X148033221Y-65117400D01*
X150073779Y-77910000D02*
X149748221Y-77910000D01*
X150073779Y-78930000D02*
X149748221Y-78930000D01*
M02*
