G04 #@! TF.GenerationSoftware,KiCad,Pcbnew,(5.1.5)-3*
G04 #@! TF.CreationDate,2020-06-28T02:30:20+02:00*
G04 #@! TF.ProjectId,XenoGCFlex,58656e6f-4743-4466-9c65-782e6b696361,rev?*
G04 #@! TF.SameCoordinates,Original*
G04 #@! TF.FileFunction,Soldermask,Bot*
G04 #@! TF.FilePolarity,Negative*
%FSLAX46Y46*%
G04 Gerber Fmt 4.6, Leading zero omitted, Abs format (unit mm)*
G04 Created by KiCad (PCBNEW (5.1.5)-3) date 2020-06-28 02:30:20*
%MOMM*%
%LPD*%
G04 APERTURE LIST*
%ADD10C,0.100000*%
G04 APERTURE END LIST*
D10*
G36*
X134709000Y-72271000D02*
G01*
X132907000Y-72271000D01*
X132907000Y-70469000D01*
X134709000Y-70469000D01*
X134709000Y-72271000D01*
G37*
G36*
X136461512Y-70473927D02*
G01*
X136610812Y-70503624D01*
X136774784Y-70571544D01*
X136922354Y-70670147D01*
X137047853Y-70795646D01*
X137146456Y-70943216D01*
X137214376Y-71107188D01*
X137249000Y-71281259D01*
X137249000Y-71458741D01*
X137214376Y-71632812D01*
X137146456Y-71796784D01*
X137047853Y-71944354D01*
X136922354Y-72069853D01*
X136774784Y-72168456D01*
X136610812Y-72236376D01*
X136461512Y-72266073D01*
X136436742Y-72271000D01*
X136259258Y-72271000D01*
X136234488Y-72266073D01*
X136085188Y-72236376D01*
X135921216Y-72168456D01*
X135773646Y-72069853D01*
X135648147Y-71944354D01*
X135549544Y-71796784D01*
X135481624Y-71632812D01*
X135447000Y-71458741D01*
X135447000Y-71281259D01*
X135481624Y-71107188D01*
X135549544Y-70943216D01*
X135648147Y-70795646D01*
X135773646Y-70670147D01*
X135921216Y-70571544D01*
X136085188Y-70503624D01*
X136234488Y-70473927D01*
X136259258Y-70469000D01*
X136436742Y-70469000D01*
X136461512Y-70473927D01*
G37*
G36*
X140058000Y-72171000D02*
G01*
X137656000Y-72171000D01*
X137656000Y-70569000D01*
X140058000Y-70569000D01*
X140058000Y-72171000D01*
G37*
G36*
X133921512Y-67933927D02*
G01*
X134070812Y-67963624D01*
X134234784Y-68031544D01*
X134382354Y-68130147D01*
X134507853Y-68255646D01*
X134606456Y-68403216D01*
X134674376Y-68567188D01*
X134709000Y-68741259D01*
X134709000Y-68918741D01*
X134674376Y-69092812D01*
X134606456Y-69256784D01*
X134507853Y-69404354D01*
X134382354Y-69529853D01*
X134234784Y-69628456D01*
X134070812Y-69696376D01*
X133921512Y-69726073D01*
X133896742Y-69731000D01*
X133719258Y-69731000D01*
X133694488Y-69726073D01*
X133545188Y-69696376D01*
X133381216Y-69628456D01*
X133233646Y-69529853D01*
X133108147Y-69404354D01*
X133009544Y-69256784D01*
X132941624Y-69092812D01*
X132907000Y-68918741D01*
X132907000Y-68741259D01*
X132941624Y-68567188D01*
X133009544Y-68403216D01*
X133108147Y-68255646D01*
X133233646Y-68130147D01*
X133381216Y-68031544D01*
X133545188Y-67963624D01*
X133694488Y-67933927D01*
X133719258Y-67929000D01*
X133896742Y-67929000D01*
X133921512Y-67933927D01*
G37*
G36*
X136461512Y-67933927D02*
G01*
X136610812Y-67963624D01*
X136774784Y-68031544D01*
X136922354Y-68130147D01*
X137047853Y-68255646D01*
X137146456Y-68403216D01*
X137214376Y-68567188D01*
X137249000Y-68741259D01*
X137249000Y-68918741D01*
X137214376Y-69092812D01*
X137146456Y-69256784D01*
X137047853Y-69404354D01*
X136922354Y-69529853D01*
X136774784Y-69628456D01*
X136610812Y-69696376D01*
X136461512Y-69726073D01*
X136436742Y-69731000D01*
X136259258Y-69731000D01*
X136234488Y-69726073D01*
X136085188Y-69696376D01*
X135921216Y-69628456D01*
X135773646Y-69529853D01*
X135648147Y-69404354D01*
X135549544Y-69256784D01*
X135481624Y-69092812D01*
X135447000Y-68918741D01*
X135447000Y-68741259D01*
X135481624Y-68567188D01*
X135549544Y-68403216D01*
X135648147Y-68255646D01*
X135773646Y-68130147D01*
X135921216Y-68031544D01*
X136085188Y-67963624D01*
X136234488Y-67933927D01*
X136259258Y-67929000D01*
X136436742Y-67929000D01*
X136461512Y-67933927D01*
G37*
G36*
X140058000Y-69631000D02*
G01*
X137656000Y-69631000D01*
X137656000Y-68029000D01*
X140058000Y-68029000D01*
X140058000Y-69631000D01*
G37*
G36*
X145260564Y-66395389D02*
G01*
X145451833Y-66474615D01*
X145451835Y-66474616D01*
X145623973Y-66589635D01*
X145770365Y-66736027D01*
X145856110Y-66864353D01*
X145885385Y-66908167D01*
X145964611Y-67099436D01*
X146005000Y-67302484D01*
X146005000Y-67509516D01*
X145964611Y-67712564D01*
X145885385Y-67903833D01*
X145885384Y-67903835D01*
X145770365Y-68075973D01*
X145623973Y-68222365D01*
X145451835Y-68337384D01*
X145451834Y-68337385D01*
X145451833Y-68337385D01*
X145260564Y-68416611D01*
X145057516Y-68457000D01*
X144850484Y-68457000D01*
X144647436Y-68416611D01*
X144456167Y-68337385D01*
X144456166Y-68337385D01*
X144456165Y-68337384D01*
X144284027Y-68222365D01*
X144137635Y-68075973D01*
X144022616Y-67903835D01*
X144022615Y-67903833D01*
X143943389Y-67712564D01*
X143903000Y-67509516D01*
X143903000Y-67302484D01*
X143943389Y-67099436D01*
X144022615Y-66908167D01*
X144051891Y-66864353D01*
X144137635Y-66736027D01*
X144284027Y-66589635D01*
X144456165Y-66474616D01*
X144456167Y-66474615D01*
X144647436Y-66395389D01*
X144850484Y-66355000D01*
X145057516Y-66355000D01*
X145260564Y-66395389D01*
G37*
G36*
X136461512Y-65393927D02*
G01*
X136610812Y-65423624D01*
X136774784Y-65491544D01*
X136922354Y-65590147D01*
X137047853Y-65715646D01*
X137146456Y-65863216D01*
X137214376Y-66027188D01*
X137249000Y-66201259D01*
X137249000Y-66378741D01*
X137214376Y-66552812D01*
X137146456Y-66716784D01*
X137047853Y-66864354D01*
X136922354Y-66989853D01*
X136774784Y-67088456D01*
X136610812Y-67156376D01*
X136461512Y-67186073D01*
X136436742Y-67191000D01*
X136259258Y-67191000D01*
X136234488Y-67186073D01*
X136085188Y-67156376D01*
X135921216Y-67088456D01*
X135773646Y-66989853D01*
X135648147Y-66864354D01*
X135549544Y-66716784D01*
X135481624Y-66552812D01*
X135447000Y-66378741D01*
X135447000Y-66201259D01*
X135481624Y-66027188D01*
X135549544Y-65863216D01*
X135648147Y-65715646D01*
X135773646Y-65590147D01*
X135921216Y-65491544D01*
X136085188Y-65423624D01*
X136234488Y-65393927D01*
X136259258Y-65389000D01*
X136436742Y-65389000D01*
X136461512Y-65393927D01*
G37*
G36*
X133921512Y-65393927D02*
G01*
X134070812Y-65423624D01*
X134234784Y-65491544D01*
X134382354Y-65590147D01*
X134507853Y-65715646D01*
X134606456Y-65863216D01*
X134674376Y-66027188D01*
X134709000Y-66201259D01*
X134709000Y-66378741D01*
X134674376Y-66552812D01*
X134606456Y-66716784D01*
X134507853Y-66864354D01*
X134382354Y-66989853D01*
X134234784Y-67088456D01*
X134070812Y-67156376D01*
X133921512Y-67186073D01*
X133896742Y-67191000D01*
X133719258Y-67191000D01*
X133694488Y-67186073D01*
X133545188Y-67156376D01*
X133381216Y-67088456D01*
X133233646Y-66989853D01*
X133108147Y-66864354D01*
X133009544Y-66716784D01*
X132941624Y-66552812D01*
X132907000Y-66378741D01*
X132907000Y-66201259D01*
X132941624Y-66027188D01*
X133009544Y-65863216D01*
X133108147Y-65715646D01*
X133233646Y-65590147D01*
X133381216Y-65491544D01*
X133545188Y-65423624D01*
X133694488Y-65393927D01*
X133719258Y-65389000D01*
X133896742Y-65389000D01*
X133921512Y-65393927D01*
G37*
G36*
X140058000Y-67091000D02*
G01*
X137656000Y-67091000D01*
X137656000Y-65489000D01*
X140058000Y-65489000D01*
X140058000Y-67091000D01*
G37*
G36*
X143610564Y-64669389D02*
G01*
X143801833Y-64748615D01*
X143801835Y-64748616D01*
X143973973Y-64863635D01*
X144120365Y-65010027D01*
X144235385Y-65182167D01*
X144314611Y-65373436D01*
X144355000Y-65576484D01*
X144355000Y-65783516D01*
X144314611Y-65986564D01*
X144235385Y-66177833D01*
X144235384Y-66177835D01*
X144120365Y-66349973D01*
X143973973Y-66496365D01*
X143801835Y-66611384D01*
X143801834Y-66611385D01*
X143801833Y-66611385D01*
X143610564Y-66690611D01*
X143407516Y-66731000D01*
X143200484Y-66731000D01*
X142997436Y-66690611D01*
X142806167Y-66611385D01*
X142806166Y-66611385D01*
X142806165Y-66611384D01*
X142634027Y-66496365D01*
X142487635Y-66349973D01*
X142372616Y-66177835D01*
X142372615Y-66177833D01*
X142293389Y-65986564D01*
X142253000Y-65783516D01*
X142253000Y-65576484D01*
X142293389Y-65373436D01*
X142372615Y-65182167D01*
X142487635Y-65010027D01*
X142634027Y-64863635D01*
X142806165Y-64748616D01*
X142806167Y-64748615D01*
X142997436Y-64669389D01*
X143200484Y-64629000D01*
X143407516Y-64629000D01*
X143610564Y-64669389D01*
G37*
G36*
X153060564Y-61769289D02*
G01*
X153251833Y-61848515D01*
X153251835Y-61848516D01*
X153368898Y-61926735D01*
X153423973Y-61963535D01*
X153570365Y-62109927D01*
X153685385Y-62282067D01*
X153764611Y-62473336D01*
X153805000Y-62676384D01*
X153805000Y-62883416D01*
X153764611Y-63086464D01*
X153699395Y-63243910D01*
X153685384Y-63277735D01*
X153570365Y-63449873D01*
X153423973Y-63596265D01*
X153251835Y-63711284D01*
X153251834Y-63711285D01*
X153251833Y-63711285D01*
X153060564Y-63790511D01*
X152857516Y-63830900D01*
X152650484Y-63830900D01*
X152447435Y-63790511D01*
X152429130Y-63782929D01*
X152405681Y-63775816D01*
X152381295Y-63773415D01*
X152356909Y-63775817D01*
X152333460Y-63782931D01*
X152311849Y-63794482D01*
X152292908Y-63810028D01*
X152277363Y-63828970D01*
X152265812Y-63850581D01*
X152258699Y-63874030D01*
X152256298Y-63898416D01*
X152258700Y-63922802D01*
X152265814Y-63946251D01*
X152277366Y-63967862D01*
X152284384Y-63978365D01*
X152363611Y-64169636D01*
X152404000Y-64372684D01*
X152404000Y-64579716D01*
X152363611Y-64782764D01*
X152330113Y-64863635D01*
X152284384Y-64974035D01*
X152169365Y-65146173D01*
X152022973Y-65292565D01*
X151850835Y-65407584D01*
X151850834Y-65407585D01*
X151850833Y-65407585D01*
X151659564Y-65486811D01*
X151456516Y-65527200D01*
X151249484Y-65527200D01*
X151046436Y-65486811D01*
X150855167Y-65407585D01*
X150855166Y-65407585D01*
X150855165Y-65407584D01*
X150683027Y-65292565D01*
X150536635Y-65146173D01*
X150421616Y-64974035D01*
X150375887Y-64863635D01*
X150342389Y-64782764D01*
X150302000Y-64579716D01*
X150302000Y-64372684D01*
X150342389Y-64169636D01*
X150421615Y-63978367D01*
X150491331Y-63874030D01*
X150536635Y-63806227D01*
X150683027Y-63659835D01*
X150855165Y-63544816D01*
X150855167Y-63544815D01*
X151046436Y-63465589D01*
X151249484Y-63425200D01*
X151456516Y-63425200D01*
X151659565Y-63465589D01*
X151677870Y-63473171D01*
X151701319Y-63480284D01*
X151725705Y-63482685D01*
X151750091Y-63480283D01*
X151773540Y-63473169D01*
X151795151Y-63461618D01*
X151814092Y-63446072D01*
X151829637Y-63427130D01*
X151841188Y-63405519D01*
X151848301Y-63382070D01*
X151850702Y-63357684D01*
X151848300Y-63333298D01*
X151841186Y-63309849D01*
X151829634Y-63288238D01*
X151822616Y-63277735D01*
X151743389Y-63086464D01*
X151703000Y-62883416D01*
X151703000Y-62676384D01*
X151743389Y-62473336D01*
X151822615Y-62282067D01*
X151937635Y-62109927D01*
X152084027Y-61963535D01*
X152139102Y-61926735D01*
X152256165Y-61848516D01*
X152256167Y-61848515D01*
X152447436Y-61769289D01*
X152650484Y-61728900D01*
X152857516Y-61728900D01*
X153060564Y-61769289D01*
G37*
G36*
X148861564Y-61222689D02*
G01*
X149052833Y-61301915D01*
X149052835Y-61301916D01*
X149224973Y-61416935D01*
X149371365Y-61563327D01*
X149486385Y-61735467D01*
X149565611Y-61926736D01*
X149606000Y-62129784D01*
X149606000Y-62336816D01*
X149565611Y-62539864D01*
X149509062Y-62676386D01*
X149486384Y-62731135D01*
X149371365Y-62903273D01*
X149224973Y-63049665D01*
X149052835Y-63164684D01*
X149052834Y-63164685D01*
X149052833Y-63164685D01*
X148861564Y-63243911D01*
X148658516Y-63284300D01*
X148451484Y-63284300D01*
X148248436Y-63243911D01*
X148057167Y-63164685D01*
X148057166Y-63164685D01*
X148057165Y-63164684D01*
X147885027Y-63049665D01*
X147738635Y-62903273D01*
X147623616Y-62731135D01*
X147600938Y-62676386D01*
X147544389Y-62539864D01*
X147504000Y-62336816D01*
X147504000Y-62129784D01*
X147544389Y-61926736D01*
X147623615Y-61735467D01*
X147738635Y-61563327D01*
X147885027Y-61416935D01*
X148057165Y-61301916D01*
X148057167Y-61301915D01*
X148248436Y-61222689D01*
X148451484Y-61182300D01*
X148658516Y-61182300D01*
X148861564Y-61222689D01*
G37*
G36*
X145564564Y-61222689D02*
G01*
X145755833Y-61301915D01*
X145755835Y-61301916D01*
X145927973Y-61416935D01*
X146074365Y-61563327D01*
X146189385Y-61735467D01*
X146268611Y-61926736D01*
X146309000Y-62129784D01*
X146309000Y-62336816D01*
X146268611Y-62539864D01*
X146212062Y-62676386D01*
X146189384Y-62731135D01*
X146074365Y-62903273D01*
X145927973Y-63049665D01*
X145755835Y-63164684D01*
X145755834Y-63164685D01*
X145755833Y-63164685D01*
X145564564Y-63243911D01*
X145361516Y-63284300D01*
X145154484Y-63284300D01*
X144951436Y-63243911D01*
X144760167Y-63164685D01*
X144760166Y-63164685D01*
X144760165Y-63164684D01*
X144588027Y-63049665D01*
X144441635Y-62903273D01*
X144326616Y-62731135D01*
X144303938Y-62676386D01*
X144247389Y-62539864D01*
X144207000Y-62336816D01*
X144207000Y-62129784D01*
X144247389Y-61926736D01*
X144326615Y-61735467D01*
X144441635Y-61563327D01*
X144588027Y-61416935D01*
X144760165Y-61301916D01*
X144760167Y-61301915D01*
X144951436Y-61222689D01*
X145154484Y-61182300D01*
X145361516Y-61182300D01*
X145564564Y-61222689D01*
G37*
M02*
